<svg width="76" height="78" viewBox="0 0 76 78" fill="none" xmlns="http://www.w3.org/2000/svg">
<rect x="7" width="62" height="8" rx="4" fill="url(#paint0_linear)"/>
<path d="M0 19C0 14.5817 3.58172 11 8 11H68C72.4183 11 76 14.5817 76 19V68C76 73.5228 71.5229 78 66 78H10C4.47715 78 0 73.5228 0 68V19Z" fill="url(#paint1_radial)"/>
<rect x="41" y="1.00482" width="14.3888" height="6" rx="3" transform="rotate(90.0692 41 1.00482)" fill="url(#paint2_linear)"/>
<rect x="20.0174" y="1.00482" width="14.3888" height="4" rx="2" transform="rotate(90.0692 20.0174 1.00482)" fill="#4CA8F3"/>
<rect x="60" y="1.00482" width="14.3888" height="4" rx="2" transform="rotate(90.0692 60 1.00482)" fill="#4CA8F3"/>
<circle cx="38" cy="16" r="5" fill="#3889E8"/>
<circle cx="58" cy="14" r="3" fill="#4CA8F3"/>
<circle cx="18" cy="14" r="3" fill="#4CA8F3"/>
<defs>
<linearGradient id="paint0_linear" x1="38" y1="0" x2="38" y2="16.5" gradientUnits="userSpaceOnUse">
<stop stop-color="#4CA8F3"/>
<stop offset="1" stop-color="#4CA8F3" stop-opacity="0"/>
</linearGradient>
<radialGradient id="paint1_radial" cx="0" cy="0" r="1" gradientUnits="userSpaceOnUse" gradientTransform="translate(38 44.5) rotate(-22.2666) scale(68.6167 77.8339)">
<stop stop-color="#4CA8F3"/>
<stop offset="1" stop-color="#4CA8F3" stop-opacity="0"/>
</radialGradient>
<linearGradient id="paint2_linear" x1="48.1944" y1="1.00482" x2="49.5085" y2="11.9945" gradientUnits="userSpaceOnUse">
<stop stop-color="#3889E8"/>
<stop offset="1" stop-color="#3889E8" stop-opacity="0"/>
</linearGradient>
</defs>
</svg>
